
        <svg xmlns="http://www.w3.org/2000/svg" xmlns:xlink="http://www.w3.org/1999/xlink" version="1.1" width="3168.6253717187956" 
        height="805.7457390991109" viewBox="0 0 3168.6253717187956 805.7457390991109">
			
			<g transform="scale(8.431268585939783) translate(10, 10)">
				<defs id="SvgjsDefs1290"><linearGradient id="SvgjsLinearGradient1295"><stop id="SvgjsStop1296" stop-color="#147d6c" offset="0"></stop><stop id="SvgjsStop1297" stop-color="#1effff" offset="1"></stop></linearGradient></defs><g id="SvgjsG1291" featureKey="Df7oLJ-0" transform="matrix(1.2548729110308159,0,0,1.2548729110308159,-5.089206539904961,-2.2386919760127446)" fill="url(#SvgjsLinearGradient1295)"><g xmlns="http://www.w3.org/2000/svg"><g><g><path d="M36.9,32.6l-1.5-4.9c-0.1-0.4-0.5-0.7-0.9-0.7h-5c-0.4,0-0.8,0.3-0.9,0.7L27,32.6c-0.1,0.4,0,0.9,0.4,1.1l4,3.1     c0.3,0.3,0.8,0.3,1.2,0l4-3.1C36.9,33.5,37.1,33,36.9,32.6z"></path><g><path d="M29,17.8c-0.4,0.4-2.6,2.5-3,3.7c-0.1,0.2-0.2,0.3-0.4,0.3c-0.8,0.1-3.1,0.4-4.7,1.6c-0.1,0-0.2,0-0.2-0.1      c0-0.2-0.1-0.7-0.1-0.9c0.2-0.2,0.3-0.4,0.5-0.6c1.9-2,4.3-3.4,6.9-4.1c0.2-0.1,0.4-0.1,0.7-0.2h0c0.1,0,0.1,0.1,0.2,0.1      C29.1,17.7,29.1,17.8,29,17.8z"></path><path d="M44.1,23.5L44.1,23.5c0,0.2-0.1,0.4-0.1,0.5c0,0.1-0.1,0.1-0.1,0c-0.5-0.3-3-1.9-4.6-1.8c-0.1,0-0.2-0.1-0.2-0.1      c-0.3-0.6-1.4-3.1-2.8-4c-0.1,0-0.1-0.1,0-0.1c0.1,0,0.1-0.1,0.2-0.1c0.2,0.1,0.4,0.1,0.6,0.2c2.7,1,5,2.7,6.8,4.9      C43.9,23.1,44,23.3,44.1,23.5z"></path><path d="M46.8,32L46.8,32c0,0.6,0,1.1-0.1,1.6c-0.2,1.8-0.7,3.5-1.4,5c0,0,0,0,0,0c-0.2,0.5-0.5,0.9-0.7,1.3      c-0.5,0.3-1.2,0.5-2,0.4c-0.1,0-0.1-0.1-0.1-0.1c0.2-0.6,0.8-3.2,0.3-5.2c0-0.1,0-0.3,0.1-0.3c0.5-0.4,2-1.8,2.9-3.7      c0-0.1,0.1-0.1,0.2,0C46.2,31.1,46.5,31.4,46.8,32z"></path><path d="M36.8,44c0.1,0,0.1,0.1,0.1,0.1c0,0.1,0,0.2-0.1,0.3c-0.3,0.8-0.9,1.7-1.7,2.1h0c-1,0.2-2.1,0.3-3.1,0.3      c-1.2,0-2.4-0.1-3.6-0.4c-0.7-0.5-1.3-1.5-1.6-2.3c0-0.1,0-0.2,0.1-0.2c0.7-0.1,3.7-0.6,4.9-1.5c0.1-0.1,0.2-0.1,0.3,0      C32.8,42.7,35,43.9,36.8,44z"></path><path d="M21.3,39.5c0,0.1-0.1,0.2-0.1,0.2c-0.6,0-1.2-0.1-1.8-0.5c-0.2-0.1-0.3-0.2-0.5-0.3c-0.4-0.8-0.8-1.6-1-2.5l0,0      c0,0,0,0,0,0c-0.3-0.9-0.5-1.8-0.6-2.8v0c-0.1-0.5-0.1-1-0.1-1.5c0-0.1,0-0.2,0-0.3c0-0.1,0.1-0.2,0.1-0.3      c0.2-0.4,0.5-0.8,0.8-1.2c0,0,0.2-0.2,0.3-0.3c0.1-0.1,0.1,0,0.2,0c0.3,1.4,2.2,3.4,2.7,4c0.1,0.1,0.1,0.2,0.1,0.4      C20.9,35.6,21.2,38.8,21.3,39.5z"></path></g></g><g><path d="M45,24.7c-0.2,0.2-0.4,0.4-0.7,0.5c-0.1,0-0.3,0.1-0.4,0.1c-0.3,0-0.5-0.1-0.7-0.2c-1.3-0.8-3-1.7-3.9-1.6     c-0.6,0-1.1-0.3-1.4-0.9c-0.6-1.2-1.5-2.9-2.4-3.5c-0.4-0.3-0.6-0.7-0.6-1.1c0-0.2,0-0.3,0.1-0.5c-1-0.2-2-0.3-3-0.3     c-0.6,0-1.2,0-1.8,0.1c0,0.1,0.1,0.2,0.1,0.4c0,0.4-0.1,0.8-0.4,1c-1.3,1.3-2.5,2.6-2.7,3.2c-0.2,0.6-0.8,1.1-1.4,1.1     c-0.6,0.1-2.7,0.4-4.1,1.4c-0.2,0.2-0.5,0.3-0.8,0.3c-0.2,0-0.3,0-0.5-0.1c-0.4-0.1-0.7-0.5-0.8-0.9c-1.2,1.7-2,3.7-2.4,5.8     c0,0,0.1-0.1,0.2-0.2c0,0,0.1-0.1,0.2-0.1c0.3-0.3,0.8-0.5,1.3-0.3c0.5,0.1,0.8,0.5,0.9,1c0.2,0.7,1.1,2.1,2.4,3.4     c0.4,0.4,0.6,1.1,0.3,1.7c-0.2,0.6-0.3,2.5,0,4.5v0c0,0.4-0.1,0.8-0.3,1.1c-0.3,0.3-0.6,0.5-1,0.5h0c-0.5,0-1-0.1-1.4-0.2     c1.7,2.4,4,4.3,6.8,5.4c-0.4-0.6-0.7-1.1-0.8-1.6c-0.1-0.4-0.1-0.8,0.1-1.2c0.2-0.3,0.6-0.6,1-0.7c1.6-0.3,3.6-0.8,4.3-1.3     c0.5-0.3,1.1-0.4,1.6-0.1c1.2,0.7,2.9,1.4,4.1,1.5c0.4,0,0.8,0.2,1,0.6c0.2,0.3,0.3,0.7,0.2,1.1c0,0.2-0.1,0.3-0.1,0.4     c-0.1,0.4-0.4,0.9-0.7,1.4c2.6-1,4.8-2.6,6.5-4.8c-0.3,0.1-0.6,0.1-0.9,0.1c-0.1,0-0.3,0-0.4,0c-0.4,0-0.8-0.2-1-0.6     c-0.2-0.3-0.3-0.7-0.2-1.1c0.4-1.3,0.6-3.3,0.3-4.6c-0.2-0.6,0-1.2,0.5-1.6c0.4-0.3,1.8-1.6,2.6-3.3c0.2-0.4,0.5-0.7,1-0.8     c0.4-0.1,0.9,0,1.2,0.3c0,0,0,0,0,0C46.6,28.1,45.9,26.3,45,24.7z M37.3,34.8l-4,3.1c-0.4,0.3-0.9,0.4-1.3,0.4s-0.9-0.1-1.3-0.4     l-4-3.1c-0.8-0.6-1.1-1.6-0.8-2.5l1.5-4.9c0.3-0.9,1.1-1.6,2.1-1.6h5c1,0,1.8,0.6,2.1,1.6l1.5,4.9C38.4,33.2,38.1,34.2,37.3,34.8     z"></path></g></g><path d="M4.1,18.3c0-1.3,0-2.6,0-3.9c0-2.6,1.7-4.4,4.2-4.6c3.5-0.3,7-0.8,10.3-1.9c3.7-1.1,7.1-2.8,10.2-4.9   c1.3-0.8,2.6-1.5,4.1-1.1c0.7,0.2,1.4,0.5,2,0.9c5.7,4,12.1,6.3,19.1,6.8c0.6,0,1.3,0.1,1.9,0.2c2.3,0.3,3.9,2.2,3.9,4.5   c0,4.1-0.4,8.1-1.1,12.1c-1,5.6-2.7,10.9-5.4,15.9c-3.6,6.7-8.6,12.1-14.8,16.4c-1.3,0.9-2.8,1.8-4.2,2.6c-1.5,0.9-3.1,0.9-4.7,0.2   c-5-2.4-9.6-5.4-13.5-9.5C12.1,47.7,9,42.4,7,36.5C5.7,32.8,4.9,29,4.5,25.1C4.3,22.9,4.2,20.6,4.1,18.3C4,18.3,4.1,18.3,4.1,18.3z    M7.8,17.7c0,4.8,0.5,9.5,1.6,14.1c1.6,6.1,4.2,11.7,8.5,16.5c3.7,4.3,8.3,7.4,13.4,9.9c0.6,0.3,1.1,0.2,1.6-0.2   c1.5-1,3.1-1.9,4.5-3c7.3-5.3,12.5-12.3,15.5-20.9c2.2-6.3,3.1-12.8,3.2-19.4c0-1-0.2-1.2-1.2-1.3c-1.4-0.1-2.8-0.3-4.2-0.5   c-6.5-0.8-12.3-3.2-17.6-6.9c-1-0.7-1.1-0.7-2.2,0c-4.8,3.2-10.1,5.4-15.8,6.5c-2,0.4-4.1,0.6-6.2,0.8c-1.2,0.1-1.3,0.2-1.3,1.4   C7.8,15.8,7.8,16.8,7.8,17.7z"></path></g></g><g id="SvgjsG1292" featureKey="Ua4uQk-0" transform="matrix(1.7934038007944577,0,0,1.7934038007944577,87.8479153535305,11.49065434306081)" fill="#111111"><path d="M6.18 6 c3.14 0 5.22 1.9 5.22 4.82 c0 2.88 -2.08 4.6 -5.22 4.6 l-1.76 0 l0 4.58 l-3.22 0 l0 -14 l4.98 0 z M5.98 12.68 c1.3 0 2.2 -0.46 2.2 -1.86 c0 -1.38 -0.9 -1.86 -2.2 -1.86 l-1.56 0 l0 3.72 l1.56 0 z M16.28 5.859999999999999 l0 14.14 l-3.16 0 l0 -14.14 l3.16 0 z M25.8 9.6 l3.16 0 l0 10.4 l-3.16 0 l0 -1.04 c-0.14 0.36 -1.08 1.24 -2.68 1.24 c-2.38 0 -5.12 -1.7 -5.12 -5.42 c0 -3.58 2.74 -5.36 5.12 -5.36 c1.6 0 2.54 0.92 2.68 1.14 l0 -0.96 z M23.580000000000002 17.42 c1.3 0 2.36 -0.9 2.36 -2.64 c0 -1.68 -1.06 -2.58 -2.36 -2.58 c-1.36 0 -2.52 0.92 -2.52 2.58 c0 1.72 1.16 2.64 2.52 2.64 z M39.44 9.56 l3.14 0 l-6.36 14.24 l-3.16 0 l1.92 -4.16 l-4.5 -10.08 l3.14 0 l2.92 6.68 z M49.26 9.42 c2.36 0 5.66 1.78 5 6.48 l-7.26 0 c0.36 1.08 1.3 1.64 2.56 1.64 c1.28 0 1.68 -0.28 2.4 -0.58 l1.74 1.68 c-0.92 0.9 -2.16 1.56 -4.26 1.56 c-2.58 0 -5.66 -1.78 -5.66 -5.36 c0 -3.64 3.12 -5.42 5.48 -5.42 z M49.26 12.120000000000001 c-0.9 0 -1.82 0.52 -2.22 1.56 l4.42 0 c-0.32 -1.04 -1.3 -1.56 -2.2 -1.56 z M62.74 9.44 c0.28 0 0.56 0 0.82 0.06 l0 3.02 c-0.24 -0.06 -0.52 -0.06 -0.72 -0.06 c-1.92 0 -3.46 1.38 -3.62 3.3 l0 4.24 l-3.16 0 l0 -10.4 l3.16 0 l0 2.54 c0.48 -1.56 1.68 -2.7 3.52 -2.7 z M70.11999999999999 12.879999999999999 c-0.28 -0.72 -0.7 -0.96 -1.16 -0.96 c-0.42 0 -0.84 0.24 -0.84 0.64 c0 0.38 0.24 0.6 0.7 0.76 l1.32 0.46 c1.48 0.54 2.98 1.08 2.98 3.16 c0 2.1 -2.1 3.3 -4.26 3.3 c-1.94 0 -3.76 -1.14 -4.2 -2.96 l2.48 -0.78 c0.26 0.58 0.72 1.24 1.72 1.24 c0.68 0 1.12 -0.44 1.12 -0.84 c0 -0.2 -0.16 -0.46 -0.66 -0.66 l-1.22 -0.44 c-2.08 -0.76 -3.06 -1.82 -3.06 -3.3 c0 -1.94 1.8 -3.08 3.78 -3.08 c2.02 0 3.36 1.1 3.96 2.76 z M88.88 12.219999999999999 c1.4 0.4 2.84 1.66 2.84 3.66 c0 2.56 -1.6 4.12 -5.1 4.12 l-5.7 0 l0 -14 l5.32 0 c2.94 0 4.42 1.66 4.42 3.54 c0 1.54 -1 2.32 -1.78 2.68 z M85.94 8.8 l-1.8 0 l0 2.5 l1.8 0 c1.14 0 1.52 -0.52 1.52 -1.26 c0 -0.8 -0.48 -1.24 -1.52 -1.24 z M86.44 17.2 c1.42 0 2.06 -0.6 2.06 -1.74 c0 -0.96 -0.64 -1.58 -2.22 -1.58 l-2.14 0 l0 3.32 l2.3 0 z M100.92 9.6 l3.16 0 l0 10.4 l-3.16 0 l0 -1.04 c-0.14 0.36 -1.08 1.24 -2.68 1.24 c-2.38 0 -5.12 -1.7 -5.12 -5.42 c0 -3.58 2.74 -5.36 5.12 -5.36 c1.6 0 2.54 0.92 2.68 1.14 l0 -0.96 z M98.7 17.42 c1.3 0 2.36 -0.9 2.36 -2.64 c0 -1.68 -1.06 -2.58 -2.36 -2.58 c-1.36 0 -2.52 0.92 -2.52 2.58 c0 1.72 1.16 2.64 2.52 2.64 z M115.63999999999999 9.6 l-5 7.64 l4.66 0 l0 2.76 l-9.7 0 l5 -7.64 l-4.54 0 l0 -2.76 l9.58 0 z M124.04 9.6 l3.16 0 l0 10.4 l-3.16 0 l0 -1.04 c-0.14 0.36 -1.08 1.24 -2.68 1.24 c-2.38 0 -5.12 -1.7 -5.12 -5.42 c0 -3.58 2.74 -5.36 5.12 -5.36 c1.6 0 2.54 0.92 2.68 1.14 l0 -0.96 z M121.82000000000001 17.42 c1.3 0 2.36 -0.9 2.36 -2.64 c0 -1.68 -1.06 -2.58 -2.36 -2.58 c-1.36 0 -2.52 0.92 -2.52 2.58 c0 1.72 1.16 2.64 2.52 2.64 z M136.72 9.6 l3.16 0 l0 10.4 l-3.16 0 l0 -1.04 c-0.14 0.36 -1.08 1.24 -2.68 1.24 c-2.38 0 -5.12 -1.7 -5.12 -5.42 c0 -3.58 2.74 -5.36 5.12 -5.36 c1.6 0 2.54 0.92 2.68 1.14 l0 -0.96 z M134.5 17.42 c1.3 0 2.36 -0.9 2.36 -2.64 c0 -1.68 -1.06 -2.58 -2.36 -2.58 c-1.36 0 -2.52 0.92 -2.52 2.58 c0 1.72 1.16 2.64 2.52 2.64 z M148.6 9.44 c0.28 0 0.56 0 0.82 0.06 l0 3.02 c-0.24 -0.06 -0.52 -0.06 -0.72 -0.06 c-1.92 0 -3.46 1.38 -3.62 3.3 l0 4.24 l-3.16 0 l0 -10.4 l3.16 0 l0 2.54 c0.48 -1.56 1.68 -2.7 3.52 -2.7 z"></path></g>
			</g>
		</svg>
	