
        <svg xmlns="http://www.w3.org/2000/svg" xmlns:xlink="http://www.w3.org/1999/xlink" version="1.1" width="3166.6666666666665" 
        height="1202.3809523809525" viewBox="0 0 3166.6666666666665 1202.3809523809525">
			
			<g transform="scale(8.333333333333334) translate(10, 10)">
				<defs id="SvgjsDefs1011"></defs><g id="SvgjsG1012" featureKey="PG4fjM-0" transform="matrix(2.380952380952381,0,0,2.380952380952381,-17.047619047619047,-4.285714285714285)" fill="#0092ca"><path xmlns="http://www.w3.org/2000/svg" d="M50,34.7C50,17,42.8,6,36.2,6C23.5,6,8,22.2,8,35.4c0,5.2,3.8,10.1,10.7,13.8c6.1,3.3,13,4.8,17.1,4.8C40,54,50,54,50,34.7z   M35.7,52C27.9,52,10,45.7,10,35.4C10,23.4,24.7,8,36.2,8c2.5,0,5.6,2.4,7.9,7.1c-0.6,0.8-1.4,1.8-2.4,2.2c-2.4,1.1-5.5,1.9-8.5,1.9  c-4.8,0-13.2,0.2-14.4,8C18.6,28.6,19,30,20.3,30c1,0,1.9-0.9,2-2.1s1.5-6,6.7-6c-0.5,2-1.6,6.2-2.9,9.3c-1.6,3.9-4.1,7.7-4.9,7.7  s-3-1.7-3.3-2s-0.8-0.9-1.5-0.9c-0.7,0-1.6,0.4-1.6,1.2c0,0.9,3.3,4.8,7.3,4.8s7.8-7.3,7.8-7.3s6.8,0.5,6.7,4.8  c-0.1,2.9-0.6,6.4-0.6,7.5s0.8,2.3,2,2.3s1.9-0.8,2.1-2.5c0.5-6.8,1.9-14.6-7.7-16.3c2-3.5,3.5-9,3.5-9s5.5-0.3,9.3-4.2  c1.7,4.3,2.9,10.1,2.9,17.4C48,52,40,52,35.7,52z M31.1,42.6c-1.8,0-3.3,1.7-3.3,3.7s1.5,3.7,3.3,3.7c1.8,0,3.3-1.7,3.3-3.7  S32.9,42.6,31.1,42.6z M31.1,48.4c-1,0-1.9-0.9-1.9-2.1s0.8-2.1,1.9-2.1s1.9,0.9,1.9,2.1S32.1,48.4,31.1,48.4z M31.1,15.7  c0.2-1.5,1.6-2.7,3-2.7s2.3,1.2,2.1,2.7c-0.2,1.5-1.6,2.7-3,2.7S30.9,17.2,31.1,15.7z"></path></g><g id="SvgjsG1013" featureKey="jxYttZ-0" transform="matrix(1.6296296296296298,0,0,1.6296296296296298,137.06666674437346,52.47111129760742)" fill="#393e46"><path d="M12.92 10.52 c0 3.04 -2.36 5.5 -5.28 5.52 l-3.6 0 l0 3.96 l-2.24 0 l0 -15 l5.84 0 c2.92 0.02 5.28 2.48 5.28 5.52 z M7.6 14.2 c1.72 0 3.1 -1.66 3.1 -3.68 s-1.38 -3.68 -3.1 -3.68 l-3.56 0 l0 7.36 l3.56 0 z M17.6 4.619999999999999 l0 15.38 l-2.08 0 l0 -15.38 l2.08 0 z M24.82 9.92 c2.84 0 3.98 1.72 3.98 3.18 l0 6.9 l-2.06 0 l0 -1.08 c-0.72 0.98 -2 1.26 -2.8 1.26 c-2.26 0 -3.74 -1.32 -3.74 -3.08 c0 -2.46 1.84 -3.34 3.74 -3.34 l2.8 0 l0 -0.66 c0 -0.62 -0.24 -1.48 -1.92 -1.48 c-0.94 0 -1.8 0.5 -2.36 1.28 l-1.42 -1.28 c0.94 -1.04 2.28 -1.7 3.78 -1.7 z M26.740000000000002 16.92 l0 -1.48 l-2.52 0 c-1.22 0 -2.08 0.62 -1.94 1.74 c0.12 0.94 0.88 1.32 1.94 1.32 c1.9 0 2.52 -0.9 2.52 -1.58 z M39.86 10.12 c0 0 -2.5 5.92 -4.16 9.88 c-1.4 3.32 -2.5 5.32 -4.36 5.32 c-0.58 0 -1.32 -0.28 -1.86 -0.6 l0.62 -1.8 c0.16 0.14 0.52 0.34 0.76 0.4 c1.54 0.44 2.5 -2.78 3.16 -4.36 l-3.74 -8.84 l2.08 0 l2.72 6.48 l2.7 -6.48 l2.08 0 z M50.78 15.08 l0 0.74 l-7.78 0 c0 1.82 1.74 2.7 3.02 2.7 c0.94 0 1.98 -0.5 2.54 -1.3 l1.42 1.28 c-0.66 0.9 -1.74 1.7 -3.96 1.7 c-3.2 0 -5.16 -2.18 -5.16 -5.12 s1.9 -5.14 4.96 -5.14 s4.46 1.7 4.88 4.18 c0.06 0.32 0.08 0.64 0.08 0.96 z M43.040000000000006 14.120000000000001 l5.58 0 c0 -1.6 -1.28 -2.48 -2.8 -2.48 s-2.78 1.02 -2.78 2.48 z M58.720000000000006 10.24 l-0.44 1.62 c-0.14 -0.08 -0.58 -0.22 -0.94 -0.22 c-1.7 0 -2.5 1.62 -2.5 3.62 l0 4.74 l-2.06 0 l0 -9.88 l2.06 0 l0 1.4 c0.24 -0.92 1.3 -1.58 2.48 -1.58 c0.54 0 1.12 0.14 1.4 0.3 z M66.86000000000001 16.16 c0.04 0.12 0.38 1.1 -0.04 2.1 c-0.52 1.18 -1.9 1.94 -3.62 1.94 l-0.02 0 c-1.38 0 -2.64 -0.58 -3.58 -1.5 l1.34 -1.34 c0.56 0.72 1.36 1.08 2.24 1.08 c0.98 0 1.8 -0.36 2.02 -0.88 c0.14 -0.36 0.02 -0.74 0.02 -0.78 c-0.24 -0.6 -1.12 -0.72 -2.12 -0.94 c-1.34 -0.3 -2.68 -0.64 -3.2 -2.04 c-0.26 -0.72 -0.18 -1.56 0.18 -2.26 c0.82 -1.54 2.86 -1.6 3.1 -1.6 c1.38 0 2.68 0.52 3.6 1.46 l-1.34 1.34 c-0.56 -0.72 -1.38 -1.04 -2.26 -1.04 c-0.02 0 -1.2 0.02 -1.54 0.68 c-0.12 0.2 -0.18 0.54 -0.08 0.82 c0.2 0.56 1.1 0.74 2.06 0.96 c1.3 0.3 2.72 0.6 3.24 2 z M84.56 11.58 c1.18 0.82 1.96 2.22 1.96 3.82 c0 2.54 -2 4.6 -4.46 4.6 l-5.94 0 l0 -15 l5.94 0 c2.02 0 3.64 1.72 3.64 3.8 c0 1.08 -0.44 2.08 -1.14 2.78 z M78.34 6.84 l0 3.96 l3.72 0 l0.06 0 c0.76 -0.06 1.36 -0.96 1.36 -2 c0 -1.06 -0.64 -1.96 -1.42 -1.96 l-3.72 0 z M82.06 18.16 c1.24 0 2.24 -1.24 2.24 -2.76 c0 -1.48 -0.96 -2.7 -2.14 -2.76 l-0.1 0 l-3.72 0 l0 5.52 l3.72 0 z M93.54 9.92 c2.84 0 3.98 1.72 3.98 3.18 l0 6.9 l-2.06 0 l0 -1.08 c-0.72 0.98 -2 1.26 -2.8 1.26 c-2.26 0 -3.74 -1.32 -3.74 -3.08 c0 -2.46 1.84 -3.34 3.74 -3.34 l2.8 0 l0 -0.66 c0 -0.62 -0.24 -1.48 -1.92 -1.48 c-0.94 0 -1.8 0.5 -2.36 1.28 l-1.42 -1.28 c0.94 -1.04 2.28 -1.7 3.78 -1.7 z M95.46000000000001 16.92 l0 -1.48 l-2.52 0 c-1.22 0 -2.08 0.62 -1.94 1.74 c0.12 0.94 0.88 1.32 1.94 1.32 c1.9 0 2.52 -0.9 2.52 -1.58 z M106.9 10.12 l0 1.76 l-4.98 6.44 l4.98 0 l0 1.68 l-7.1 0 l0 -1.88 l4.96 -6.32 l-4.96 0 l0 -1.68 l7.1 0 z M113.72000000000001 9.92 c2.84 0 3.98 1.72 3.98 3.18 l0 6.9 l-2.06 0 l0 -1.08 c-0.72 0.98 -2 1.26 -2.8 1.26 c-2.26 0 -3.74 -1.32 -3.74 -3.08 c0 -2.46 1.84 -3.34 3.74 -3.34 l2.8 0 l0 -0.66 c0 -0.62 -0.24 -1.48 -1.92 -1.48 c-0.94 0 -1.8 0.5 -2.36 1.28 l-1.42 -1.28 c0.94 -1.04 2.28 -1.7 3.78 -1.7 z M115.64000000000001 16.92 l0 -1.48 l-2.52 0 c-1.22 0 -2.08 0.62 -1.94 1.74 c0.12 0.94 0.88 1.32 1.94 1.32 c1.9 0 2.52 -0.9 2.52 -1.58 z M124.40000000000002 9.92 c2.84 0 3.98 1.72 3.98 3.18 l0 6.9 l-2.06 0 l0 -1.08 c-0.72 0.98 -2 1.26 -2.8 1.26 c-2.26 0 -3.74 -1.32 -3.74 -3.08 c0 -2.46 1.84 -3.34 3.74 -3.34 l2.8 0 l0 -0.66 c0 -0.62 -0.24 -1.48 -1.92 -1.48 c-0.94 0 -1.8 0.5 -2.36 1.28 l-1.42 -1.28 c0.94 -1.04 2.28 -1.7 3.78 -1.7 z M126.32000000000002 16.92 l0 -1.48 l-2.52 0 c-1.22 0 -2.08 0.62 -1.94 1.74 c0.12 0.94 0.88 1.32 1.94 1.32 c1.9 0 2.52 -0.9 2.52 -1.58 z M136.8 10.24 l-0.44 1.62 c-0.14 -0.08 -0.58 -0.22 -0.94 -0.22 c-1.7 0 -2.5 1.62 -2.5 3.62 l0 4.74 l-2.06 0 l0 -9.88 l2.06 0 l0 1.4 c0.24 -0.92 1.3 -1.58 2.48 -1.58 c0.54 0 1.12 0.14 1.4 0.3 z"></path></g>
			</g>
		</svg>
	