
        <svg xmlns="http://www.w3.org/2000/svg" xmlns:xlink="http://www.w3.org/1999/xlink" version="1.1" width="3181.8181818181815" 
        height="1726.2449647566618" viewBox="0 0 3181.8181818181815 1726.2449647566618">
			<rect fill="#1c96e8" width="3181.8181818181815" height="1726.2449647566618"/>
			<g transform="scale(9.090909090909092) translate(10, 10)">
				<defs id="SvgjsDefs1458"></defs><g id="SvgjsG1459" featureKey="ghXSps-0" transform="matrix(1.793900693844525,0,0,1.793900693844525,107.72473645514098,-3.200316983314665)" fill="#ffffff"><g xmlns="http://www.w3.org/2000/svg"><g><g><path d="M36.9,32.6l-1.5-4.9c-0.1-0.4-0.5-0.7-0.9-0.7h-5c-0.4,0-0.8,0.3-0.9,0.7L27,32.6c-0.1,0.4,0,0.9,0.4,1.1l4,3.1     c0.3,0.3,0.8,0.3,1.2,0l4-3.1C36.9,33.5,37.1,33,36.9,32.6z"></path><g><path d="M29,17.8c-0.4,0.4-2.6,2.5-3,3.7c-0.1,0.2-0.2,0.3-0.4,0.3c-0.8,0.1-3.1,0.4-4.7,1.6c-0.1,0-0.2,0-0.2-0.1      c0-0.2-0.1-0.7-0.1-0.9c0.2-0.2,0.3-0.4,0.5-0.6c1.9-2,4.3-3.4,6.9-4.1c0.2-0.1,0.4-0.1,0.7-0.2h0c0.1,0,0.1,0.1,0.2,0.1      C29.1,17.7,29.1,17.8,29,17.8z"></path><path d="M44.1,23.5L44.1,23.5c0,0.2-0.1,0.4-0.1,0.5c0,0.1-0.1,0.1-0.1,0c-0.5-0.3-3-1.9-4.6-1.8c-0.1,0-0.2-0.1-0.2-0.1      c-0.3-0.6-1.4-3.1-2.8-4c-0.1,0-0.1-0.1,0-0.1c0.1,0,0.1-0.1,0.2-0.1c0.2,0.1,0.4,0.1,0.6,0.2c2.7,1,5,2.7,6.8,4.9      C43.9,23.1,44,23.3,44.1,23.5z"></path><path d="M46.8,32L46.8,32c0,0.6,0,1.1-0.1,1.6c-0.2,1.8-0.7,3.5-1.4,5c0,0,0,0,0,0c-0.2,0.5-0.5,0.9-0.7,1.3      c-0.5,0.3-1.2,0.5-2,0.4c-0.1,0-0.1-0.1-0.1-0.1c0.2-0.6,0.8-3.2,0.3-5.2c0-0.1,0-0.3,0.1-0.3c0.5-0.4,2-1.8,2.9-3.7      c0-0.1,0.1-0.1,0.2,0C46.2,31.1,46.5,31.4,46.8,32z"></path><path d="M36.8,44c0.1,0,0.1,0.1,0.1,0.1c0,0.1,0,0.2-0.1,0.3c-0.3,0.8-0.9,1.7-1.7,2.1h0c-1,0.2-2.1,0.3-3.1,0.3      c-1.2,0-2.4-0.1-3.6-0.4c-0.7-0.5-1.3-1.5-1.6-2.3c0-0.1,0-0.2,0.1-0.2c0.7-0.1,3.7-0.6,4.9-1.5c0.1-0.1,0.2-0.1,0.3,0      C32.8,42.7,35,43.9,36.8,44z"></path><path d="M21.3,39.5c0,0.1-0.1,0.2-0.1,0.2c-0.6,0-1.2-0.1-1.8-0.5c-0.2-0.1-0.3-0.2-0.5-0.3c-0.4-0.8-0.8-1.6-1-2.5l0,0      c0,0,0,0,0,0c-0.3-0.9-0.5-1.8-0.6-2.8v0c-0.1-0.5-0.1-1-0.1-1.5c0-0.1,0-0.2,0-0.3c0-0.1,0.1-0.2,0.1-0.3      c0.2-0.4,0.5-0.8,0.8-1.2c0,0,0.2-0.2,0.3-0.3c0.1-0.1,0.1,0,0.2,0c0.3,1.4,2.2,3.4,2.7,4c0.1,0.1,0.1,0.2,0.1,0.4      C20.9,35.6,21.2,38.8,21.3,39.5z"></path></g></g><g><path d="M45,24.7c-0.2,0.2-0.4,0.4-0.7,0.5c-0.1,0-0.3,0.1-0.4,0.1c-0.3,0-0.5-0.1-0.7-0.2c-1.3-0.8-3-1.7-3.9-1.6     c-0.6,0-1.1-0.3-1.4-0.9c-0.6-1.2-1.5-2.9-2.4-3.5c-0.4-0.3-0.6-0.7-0.6-1.1c0-0.2,0-0.3,0.1-0.5c-1-0.2-2-0.3-3-0.3     c-0.6,0-1.2,0-1.8,0.1c0,0.1,0.1,0.2,0.1,0.4c0,0.4-0.1,0.8-0.4,1c-1.3,1.3-2.5,2.6-2.7,3.2c-0.2,0.6-0.8,1.1-1.4,1.1     c-0.6,0.1-2.7,0.4-4.1,1.4c-0.2,0.2-0.5,0.3-0.8,0.3c-0.2,0-0.3,0-0.5-0.1c-0.4-0.1-0.7-0.5-0.8-0.9c-1.2,1.7-2,3.7-2.4,5.8     c0,0,0.1-0.1,0.2-0.2c0,0,0.1-0.1,0.2-0.1c0.3-0.3,0.8-0.5,1.3-0.3c0.5,0.1,0.8,0.5,0.9,1c0.2,0.7,1.1,2.1,2.4,3.4     c0.4,0.4,0.6,1.1,0.3,1.7c-0.2,0.6-0.3,2.5,0,4.5v0c0,0.4-0.1,0.8-0.3,1.1c-0.3,0.3-0.6,0.5-1,0.5h0c-0.5,0-1-0.1-1.4-0.2     c1.7,2.4,4,4.3,6.8,5.4c-0.4-0.6-0.7-1.1-0.8-1.6c-0.1-0.4-0.1-0.8,0.1-1.2c0.2-0.3,0.6-0.6,1-0.7c1.6-0.3,3.6-0.8,4.3-1.3     c0.5-0.3,1.1-0.4,1.6-0.1c1.2,0.7,2.9,1.4,4.1,1.5c0.4,0,0.8,0.2,1,0.6c0.2,0.3,0.3,0.7,0.2,1.1c0,0.2-0.1,0.3-0.1,0.4     c-0.1,0.4-0.4,0.9-0.7,1.4c2.6-1,4.8-2.6,6.5-4.8c-0.3,0.1-0.6,0.1-0.9,0.1c-0.1,0-0.3,0-0.4,0c-0.4,0-0.8-0.2-1-0.6     c-0.2-0.3-0.3-0.7-0.2-1.1c0.4-1.3,0.6-3.3,0.3-4.6c-0.2-0.6,0-1.2,0.5-1.6c0.4-0.3,1.8-1.6,2.6-3.3c0.2-0.4,0.5-0.7,1-0.8     c0.4-0.1,0.9,0,1.2,0.3c0,0,0,0,0,0C46.6,28.1,45.9,26.3,45,24.7z M37.3,34.8l-4,3.1c-0.4,0.3-0.9,0.4-1.3,0.4s-0.9-0.1-1.3-0.4     l-4-3.1c-0.8-0.6-1.1-1.6-0.8-2.5l1.5-4.9c0.3-0.9,1.1-1.6,2.1-1.6h5c1,0,1.8,0.6,2.1,1.6l1.5,4.9C38.4,33.2,38.1,34.2,37.3,34.8     z"></path></g></g><path d="M4.1,18.3c0-1.3,0-2.6,0-3.9c0-2.6,1.7-4.4,4.2-4.6c3.5-0.3,7-0.8,10.3-1.9c3.7-1.1,7.1-2.8,10.2-4.9   c1.3-0.8,2.6-1.5,4.1-1.1c0.7,0.2,1.4,0.5,2,0.9c5.7,4,12.1,6.3,19.1,6.8c0.6,0,1.3,0.1,1.9,0.2c2.3,0.3,3.9,2.2,3.9,4.5   c0,4.1-0.4,8.1-1.1,12.1c-1,5.6-2.7,10.9-5.4,15.9c-3.6,6.7-8.6,12.1-14.8,16.4c-1.3,0.9-2.8,1.8-4.2,2.6c-1.5,0.9-3.1,0.9-4.7,0.2   c-5-2.4-9.6-5.4-13.5-9.5C12.1,47.7,9,42.4,7,36.5C5.7,32.8,4.9,29,4.5,25.1C4.3,22.9,4.2,20.6,4.1,18.3C4,18.3,4.1,18.3,4.1,18.3z    M7.8,17.7c0,4.8,0.5,9.5,1.6,14.1c1.6,6.1,4.2,11.7,8.5,16.5c3.7,4.3,8.3,7.4,13.4,9.9c0.6,0.3,1.1,0.2,1.6-0.2   c1.5-1,3.1-1.9,4.5-3c7.3-5.3,12.5-12.3,15.5-20.9c2.2-6.3,3.1-12.8,3.2-19.4c0-1-0.2-1.2-1.2-1.3c-1.4-0.1-2.8-0.3-4.2-0.5   c-6.5-0.8-12.3-3.2-17.6-6.9c-1-0.7-1.1-0.7-2.2,0c-4.8,3.2-10.1,5.4-15.8,6.5c-2,0.4-4.1,0.6-6.2,0.8c-1.2,0.1-1.3,0.2-1.3,1.4   C7.8,15.8,7.8,16.8,7.8,17.7z"></path></g></g><g id="SvgjsG1460" featureKey="anH1Ye-0" transform="matrix(2.337441179960948,0,0,2.337441179960948,-3.2256696531344273,114.62983694103805)" fill="#c8f64a"><path d="M7.84 5.720000000000001 c1.52 0 2.72 0.41334 3.6 1.24 s1.32 1.94 1.32 3.34 c0 1.4133 -0.44 2.53 -1.32 3.35 s-2.0734 1.23 -3.58 1.23 l-3.34 0 l0 5.12 l-3.14 0 l0 -14.28 l6.46 0 z M7.02 12.440000000000001 c0.90666 0 1.5833 -0.16666 2.03 -0.5 s0.67 -0.88 0.67 -1.64 c0 -0.73334 -0.21666 -1.2733 -0.65 -1.62 s-1.11 -0.52 -2.03 -0.52 l-2.52 0 l0 4.28 l2.5 0 z M17.34 5.720000000000001 l0 14.28 l-2.84 0 l0 -14.28 l2.84 0 z M24.34 9.38 c3.0134 0.01334 4.52 0.9933 4.52 2.94 l0 5.48 c0 1.0133 0.12 1.7467 0.36 2.2 l-2.88 0 c-0.10666 -0.32 -0.17332 -0.65334 -0.19998 -1 c-0.84 0.85334 -2 1.28 -3.48 1.28 c-1.08 0 -1.9367 -0.27334 -2.57 -0.82 s-0.95 -1.3067 -0.95 -2.28 c0 -0.94666 0.3 -1.68 0.9 -2.2 c0.61334 -0.54666 1.7267 -0.89332 3.34 -1.04 c1.1467 -0.12 1.8733 -0.27 2.18 -0.45 s0.46 -0.45666 0.46 -0.83 c0 -0.46666 -0.14 -0.81332 -0.42 -1.04 s-0.74666 -0.34 -1.4 -0.34 c-0.6 0 -1.0533 0.12334 -1.36 0.37 s-0.48666 0.64332 -0.54 1.19 l-2.84 0 c0.06666 -1.1333 0.53332 -1.9933 1.4 -2.58 s2.0266 -0.88 3.48 -0.88 z M21.98 17.06 c0 0.88 0.58 1.32 1.74 1.32 c1.52 -0.01334 2.2866 -0.79334 2.3 -2.34 l0 -1.1 c-0.22666 0.22666 -0.8 0.39332 -1.72 0.49998 c-0.8 0.09334 -1.3867 0.25668 -1.76 0.49002 s-0.56 0.61 -0.56 1.13 z M32.9 9.66 l2.34 7.08 l0.04 0 l2.26 -7.08 l2.94 0 l-4.32 11.64 c-0.30666 0.81334 -0.73 1.4067 -1.27 1.78 s-1.29 0.56 -2.25 0.56 c-0.41334 0 -1.0067 -0.03334 -1.78 -0.1 l0 -2.34 c0.50666 0.06666 1.0067 0.1 1.5 0.1 c0.4 0 0.71 -0.12334 0.93 -0.37 s0.33 -0.55666 0.33 -0.93 c0 -0.21334 -0.04 -0.42668 -0.12 -0.64002 l-3.64 -9.7 l3.04 0 z M46.22 9.38 c0.97334 0 1.84 0.22664 2.6 0.67998 s1.3567 1.11 1.79 1.97 s0.65 1.85 0.65 2.97 c0 0.10666 -0.0066602 0.28 -0.02 0.52 l-7.46 0 c0.02666 0.82666 0.24332 1.47 0.64998 1.93 s1.03 0.69 1.87 0.69 c0.52 0 0.99666 -0.13 1.43 -0.39 s0.71 -0.57666 0.83 -0.95 l2.5 0 c-0.73334 2.32 -2.3466 3.48 -4.84 3.48 c-0.94666 -0.01334 -1.8233 -0.22 -2.63 -0.62 s-1.45 -1.0233 -1.93 -1.87 s-0.72 -1.83 -0.72 -2.95 c0 -1.0533 0.24334 -2.0134 0.73 -2.88 s1.1333 -1.5133 1.94 -1.94 s1.6767 -0.64 2.61 -0.64 z M48.4 13.719999999999999 c-0.13334 -0.77334 -0.38 -1.3333 -0.74 -1.68 s-0.87334 -0.52 -1.54 -0.52 c-0.69334 0 -1.24 0.19666 -1.64 0.59 s-0.63334 0.93 -0.7 1.61 l4.62 0 z M58.96 9.38 c0.24 0 0.44668 0.03334 0.62002 0.1 l0 2.64 c-0.30666 -0.06666 -0.64666 -0.1 -1.02 -0.1 c-1.8667 0 -2.8 1.1067 -2.8 3.32 l0 4.66 l-2.84 0 l0 -10.34 l2.7 0 l0 1.92 l0.04 0 c0.28 -0.66666 0.72334 -1.2 1.33 -1.6 s1.2633 -0.6 1.97 -0.6 z M64.94 9.38 c1.3867 0 2.47 0.28002 3.25 0.84002 s1.2167 1.38 1.31 2.46 l-2.7 0 c-0.04 -0.49334 -0.22 -0.85 -0.54 -1.07 s-0.78666 -0.33 -1.4 -0.33 c-0.53334 0 -0.93 0.08 -1.19 0.24 s-0.39 0.4 -0.39 0.72 c0 0.24 0.08666 0.44 0.26 0.6 s0.43668 0.3 0.79002 0.42 s0.74334 0.22 1.17 0.3 c1.2933 0.25334 2.2066 0.51334 2.74 0.78 s0.92334 0.58666 1.17 0.96 s0.37 0.83334 0.37 1.38 c0 1.16 -0.42334 2.05 -1.27 2.67 s-1.9967 0.93 -3.45 0.93 c-1.52 0 -2.7034 -0.32666 -3.55 -0.98 s-1.2833 -1.54 -1.31 -2.66 l2.7 0 c0 0.53334 0.20666 0.95668 0.62 1.27 s0.93334 0.47 1.56 0.47 c0.53334 0 0.97668 -0.11666 1.33 -0.35 s0.53 -0.55668 0.53 -0.97002 c0 -0.26666 -0.11 -0.48666 -0.33 -0.66 s-0.53 -0.32668 -0.93 -0.46002 s-1.02 -0.28668 -1.86 -0.46002 c-0.66666 -0.13334 -1.26 -0.31334 -1.78 -0.54 s-0.91666 -0.52332 -1.19 -0.88998 s-0.41 -0.81666 -0.41 -1.35 c0 -0.68 0.16334 -1.2733 0.49 -1.78 s0.82666 -0.89 1.5 -1.15 s1.51 -0.39 2.51 -0.39 z M84.04 5.720000000000001 c3.0266 0 4.54 1.1733 4.54 3.52 c0 1.3467 -0.64666 2.3466 -1.94 3 c0.88 0.25334 1.5367 0.69668 1.97 1.33 s0.65 1.3967 0.65 2.29 c0 1.28 -0.46334 2.29 -1.39 3.03 s-2.1434 1.11 -3.65 1.11 l-6.92 0 l0 -14.28 l6.74 0 z M83.64 11.5 c1.2667 0 1.9 -0.56666 1.9 -1.7 c0 -1.0933 -0.70666 -1.64 -2.12 -1.64 l-2.98 0 l0 3.34 l3.2 0 z M83.82000000000001 17.56 c1.5333 0 2.3 -0.62666 2.3 -1.88 c0 -1.36 -0.74666 -2.04 -2.24 -2.04 l-3.44 0 l0 3.92 l3.38 0 z M95.84 9.38 c3.0134 0.01334 4.52 0.9933 4.52 2.94 l0 5.48 c0 1.0133 0.12 1.7467 0.36 2.2 l-2.88 0 c-0.10666 -0.32 -0.17332 -0.65334 -0.19998 -1 c-0.84 0.85334 -2 1.28 -3.48 1.28 c-1.08 0 -1.9367 -0.27334 -2.57 -0.82 s-0.95 -1.3067 -0.95 -2.28 c0 -0.94666 0.3 -1.68 0.9 -2.2 c0.61334 -0.54666 1.7267 -0.89332 3.34 -1.04 c1.1467 -0.12 1.8733 -0.27 2.18 -0.45 s0.46 -0.45666 0.46 -0.83 c0 -0.46666 -0.14 -0.81332 -0.42 -1.04 s-0.74666 -0.34 -1.4 -0.34 c-0.6 0 -1.0533 0.12334 -1.36 0.37 s-0.48666 0.64332 -0.54 1.19 l-2.84 0 c0.06666 -1.1333 0.53332 -1.9933 1.4 -2.58 s2.0266 -0.88 3.48 -0.88 z M93.48 17.06 c0 0.88 0.58 1.32 1.74 1.32 c1.52 -0.01334 2.2866 -0.79334 2.3 -2.34 l0 -1.1 c-0.22666 0.22666 -0.8 0.39332 -1.72 0.49998 c-0.8 0.09334 -1.3867 0.25668 -1.76 0.49002 s-0.56 0.61 -0.56 1.13 z M111.04 9.66 l0 2.14 l-5.38 6.06 l5.76 0 l0 2.14 l-9.5 0 l0 -2.14 l5.38 -6.06 l-4.98 0 l0 -2.14 l8.72 0 z M117.7 9.38 c3.0134 0.01334 4.52 0.9933 4.52 2.94 l0 5.48 c0 1.0133 0.12 1.7467 0.36 2.2 l-2.88 0 c-0.10666 -0.32 -0.17332 -0.65334 -0.19998 -1 c-0.84 0.85334 -2 1.28 -3.48 1.28 c-1.08 0 -1.9367 -0.27334 -2.57 -0.82 s-0.95 -1.3067 -0.95 -2.28 c0 -0.94666 0.3 -1.68 0.9 -2.2 c0.61334 -0.54666 1.7267 -0.89332 3.34 -1.04 c1.1467 -0.12 1.8733 -0.27 2.18 -0.45 s0.46 -0.45666 0.46 -0.83 c0 -0.46666 -0.14 -0.81332 -0.42 -1.04 s-0.74666 -0.34 -1.4 -0.34 c-0.6 0 -1.0533 0.12334 -1.36 0.37 s-0.48666 0.64332 -0.54 1.19 l-2.84 0 c0.06666 -1.1333 0.53332 -1.9933 1.4 -2.58 s2.0266 -0.88 3.48 -0.88 z M115.34 17.06 c0 0.88 0.58 1.32 1.74 1.32 c1.52 -0.01334 2.2866 -0.79334 2.3 -2.34 l0 -1.1 c-0.22666 0.22666 -0.8 0.39332 -1.72 0.49998 c-0.8 0.09334 -1.3867 0.25668 -1.76 0.49002 s-0.56 0.61 -0.56 1.13 z M129.18 9.38 c3.0134 0.01334 4.52 0.9933 4.52 2.94 l0 5.48 c0 1.0133 0.12 1.7467 0.36 2.2 l-2.88 0 c-0.10666 -0.32 -0.17332 -0.65334 -0.19998 -1 c-0.84 0.85334 -2 1.28 -3.48 1.28 c-1.08 0 -1.9367 -0.27334 -2.57 -0.82 s-0.95 -1.3067 -0.95 -2.28 c0 -0.94666 0.3 -1.68 0.9 -2.2 c0.61334 -0.54666 1.7267 -0.89332 3.34 -1.04 c1.1467 -0.12 1.8733 -0.27 2.18 -0.45 s0.46 -0.45666 0.46 -0.83 c0 -0.46666 -0.14 -0.81332 -0.42 -1.04 s-0.74666 -0.34 -1.4 -0.34 c-0.6 0 -1.0533 0.12334 -1.36 0.37 s-0.48666 0.64332 -0.54 1.19 l-2.84 0 c0.06666 -1.1333 0.53332 -1.9933 1.4 -2.58 s2.0266 -0.88 3.48 -0.88 z M126.82000000000001 17.06 c0 0.88 0.58 1.32 1.74 1.32 c1.52 -0.01334 2.2866 -0.79334 2.3 -2.34 l0 -1.1 c-0.22666 0.22666 -0.8 0.39332 -1.72 0.49998 c-0.8 0.09334 -1.3867 0.25668 -1.76 0.49002 s-0.56 0.61 -0.56 1.13 z M141.94 9.38 c0.24 0 0.44668 0.03334 0.62002 0.1 l0 2.64 c-0.30666 -0.06666 -0.64666 -0.1 -1.02 -0.1 c-1.8667 0 -2.8 1.1067 -2.8 3.32 l0 4.66 l-2.84 0 l0 -10.34 l2.7 0 l0 1.92 l0.04 0 c0.28 -0.66666 0.72334 -1.2 1.33 -1.6 s1.2633 -0.6 1.97 -0.6 z"></path></g>
			</g>
		</svg>
	