
        <svg xmlns="http://www.w3.org/2000/svg" xmlns:xlink="http://www.w3.org/1999/xlink" version="1.1" width="3214.285714285714" 
        height="1805.7861034300395" viewBox="0 0 3214.285714285714 1805.7861034300395">
			<rect fill="#262833" width="3214.285714285714" height="1805.7861034300395"/>
			<g transform="scale(10.714285714285714) translate(10, 10)">
				<defs id="SvgjsDefs1011"></defs><g id="SvgjsG1012" featureKey="mugSzh-0" transform="matrix(1.6167195125914058,0,0,1.6167195125914058,59.66419397105607,-33.25753571204361)" fill="#39e991"><path xmlns="http://www.w3.org/2000/svg" d="M89.979,29.191c-4.384-5.559-11.139-8.62-19.019-8.62c-7.879,0-15.941,3.062-22.703,8.62  c-0.937,0.77-1.828,1.579-2.681,2.415l-29.157,4.053l26.452-1.121c-1.245,1.491-2.366,3.057-3.354,4.681L9.604,43.377l28.295-1.2  c-0.775,1.587-1.434,3.214-1.953,4.873L6.864,51.093l28.332-1.2c-0.008,0.036-0.018,0.071-0.025,0.108  c-0.342,1.599-0.545,3.176-0.627,4.723L5.156,58.81l29.382-1.245c0.088,1.725,0.336,3.402,0.755,5.011L6.864,66.527l29.321-1.244  c0.722,1.812,1.675,3.515,2.848,5.081l-27.904,3.88l30.187-1.28c4.322,4.186,10.274,6.465,17.065,6.465  c7.879,0,15.941-3.061,22.702-8.619S92.49,57.861,94.17,50C95.851,42.14,94.362,34.75,89.979,29.191z M90.092,49.133  c-1.482,6.945-5.626,13.504-11.662,18.468c-6.015,4.945-13.135,7.669-20.05,7.669c-6.574,0-12.165-2.497-15.741-7.031  c-3.605-4.571-4.809-10.74-3.392-17.37c1.484-6.945,5.627-13.504,11.662-18.468c6.017-4.945,13.137-7.67,20.051-7.67  c6.575,0,12.165,2.498,15.741,7.032C90.306,36.333,91.51,42.502,90.092,49.133z"></path><path xmlns="http://www.w3.org/2000/svg" d="M44.602,49.733l7.211-3.829c0.345-0.184,0.666-0.46,0.921-0.777c0.257-0.319,0.447-0.68,0.535-1.037l1.829-7.437  c0.176-0.713-0.102-1.247-0.685-1.32l-4.33-0.545c-3.721,3.471-6.629,7.813-8.187,12.59l1.119,2.156  C43.27,50.022,43.909,50.103,44.602,49.733z"></path><path xmlns="http://www.w3.org/2000/svg" d="M53.9,60.401c-0.217-0.25-0.507-0.439-0.835-0.529l-6.832-1.838c-0.657-0.178-1.32,0.089-1.643,0.655l-2.321,4.087  c1.659,3.76,4.529,6.771,8.282,8.621l3.739-1.495c0.604-0.243,0.959-0.864,0.875-1.542l-0.86-7.054  C54.264,60.967,54.118,60.652,53.9,60.401z"></path><path xmlns="http://www.w3.org/2000/svg" d="M60.947,31.845l5.788,3.559c0.277,0.171,0.63,0.256,1.001,0.256c0.37,0,0.757-0.085,1.108-0.256l7.31-3.559  c0.701-0.343,1.095-0.948,0.972-1.502l-0.589-2.675c-2.087-0.709-4.388-1.095-6.859-1.095s-4.937,0.386-7.328,1.095l-1.732,2.675  C60.259,30.896,60.392,31.502,60.947,31.845z"></path><path xmlns="http://www.w3.org/2000/svg" d="M81.312,35.21c-0.612,0.072-1.112,0.602-1.24,1.31l-1.34,7.374c-0.064,0.354-0.027,0.712,0.091,1.028  c0.119,0.314,0.319,0.588,0.585,0.771l5.526,3.798c0.532,0.365,1.201,0.286,1.657-0.198l2.023-2.14  c0.482-4.735-0.562-9.042-2.779-12.482L81.312,35.21z"></path><path xmlns="http://www.w3.org/2000/svg" d="M79.673,58.034l-7.619,1.838c-0.365,0.09-0.736,0.279-1.061,0.529c-0.324,0.251-0.604,0.565-0.792,0.905l-3.876,7.054  c-0.371,0.678-0.284,1.299,0.219,1.542l3.097,1.495c4.543-1.85,8.702-4.859,11.968-8.621l-0.573-4.087  C80.955,58.123,80.404,57.856,79.673,58.034z"></path><path xmlns="http://www.w3.org/2000/svg" d="M69.436,55.871l4.336-8.036c0.415-0.771,0.32-1.617-0.233-2.093l-5.792-4.968c-0.278-0.238-0.642-0.357-1.027-0.357  c-0.388,0-0.801,0.119-1.18,0.357l-7.914,4.968c-0.761,0.476-1.216,1.322-1.128,2.093l0.898,8.036  c0.086,0.771,0.695,1.294,1.51,1.294h4.233h4.235C68.188,57.165,69.021,56.643,69.436,55.871z"></path></g><g id="SvgjsG1013" featureKey="PPkF4s-0" transform="matrix(1.7432449789063527,0,0,1.7432449789063527,-2.719462482966623,106.49296430343844)" fill="#ffffff"><path d="M10.63 6.08 q1.33 0.7 2.05 1.89 t0.72 2.65 t-0.67 2.62 t-2.01 1.83 t-3.24 0.67 l-2.76 0 l0 4.26 l-3.16 0 l0 -14.62 l5.94 0 q1.8 0 3.13 0.7 z M9.64 12.3 q0.58 -0.7 0.58 -1.68 q0 -0.64 -0.3 -1.21 t-0.89 -0.93 t-1.41 -0.36 l-2.9 0 l0 4.88 l3.22 0 q1.12 0 1.7 -0.7 z M15.120000000000001 4.880000000000001 l3 0 l0 15.12 l-3 0 l0 -15.12 z M29.32 18.9 q-0.38 0.52 -1.31 0.93 t-2.03 0.41 q-1.7 0 -2.95 -0.76 t-1.91 -2.07 t-0.66 -2.91 t0.66 -2.91 t1.91 -2.07 t2.95 -0.76 q1.14 0 2.01 0.39 t1.33 0.99 l0 -1.14 l2.96 0 l0 11 l-2.96 0 l0 -1.1 z M28.62 12.25 q-0.82 -0.87 -2.2 -0.87 q-1.4 0 -2.21 0.87 t-0.81 2.25 q0 1.34 0.83 2.22 t2.19 0.88 q1.4 0 2.21 -0.83 t0.81 -2.27 q0 -1.38 -0.82 -2.25 z M36.86 24.12 l1.9 -4.52 l-4.72 -10.56 l3.46 0 l2.78 7 l2.56 -7 l3.46 0 l-6.14 15.08 l-3.3 0 z M50.589999999999996 19.74 q-1.37 -0.54 -2.35 -1.83 t-0.98 -3.37 t0.99 -3.36 t2.37 -1.82 t2.62 -0.54 q1.44 0 2.74 0.64 t2.13 1.88 t0.87 2.94 q0 0.52 -0.02 0.9 t-0.04 0.48 l-8.68 0 q0.24 1.16 1.2 1.58 t1.8 0.42 q1.08 0 1.72 -0.39 t1.1 -0.89 l2.32 1.34 q-1.88 2.56 -5.14 2.56 q-1.28 0 -2.65 -0.54 z M51.199999999999996 12.05 q-0.78 0.61 -0.88 1.49 l5.5 0 q-0.06 -0.52 -0.4 -1 t-0.91 -0.79 t-1.29 -0.31 q-1.24 0 -2.02 0.61 z M66.64 11.87 q-0.86 0.21 -1.58 0.99 t-0.72 2.28 l0 4.86 l-2.98 0 l0 -11 l2.98 0 l0 1.46 q0.74 -0.98 1.81 -1.33 t1.95 -0.33 l0 2.92 q-0.6 -0.06 -1.46 0.15 z M69.26 18.54 l1.56 -2.08 q0.72 0.5 1.68 0.84 t1.88 0.34 q0.68 0 1.13 -0.28 t0.45 -0.7 t-0.51 -0.59 t-0.99 -0.24 t-0.62 -0.09 q-1.2 -0.2 -2.07 -0.48 t-1.58 -1 t-0.71 -1.98 q0 -2.08 1.51 -2.78 t3.03 -0.7 q1.3 0 2.4 0.38 t2.18 1.2 l-1.56 2.04 q-0.78 -0.46 -1.54 -0.74 t-1.58 -0.28 q-0.5 0 -0.97 0.22 t-0.47 0.6 q0 0.48 0.65 0.68 t1.43 0.3 q1.4 0.24 2.24 0.5 t1.49 0.97 t0.65 2.01 q0 1.72 -1.18 2.65 t-3.34 0.93 q-3 0 -5.16 -1.72 z M97.81 11.22 q-0.51 0.8 -1.33 1.14 q1 0.34 1.72 1.3 t0.72 2.1 q0 2.26 -1.44 3.25 t-3.68 0.99 l-6.32 0 l0 -14.62 l6.08 0 q4.76 0 4.76 4.06 q0 0.98 -0.51 1.78 z M93.62 11.18 q0.78 0 1.15 -0.48 t0.37 -1.14 q0 -0.58 -0.44 -1.01 t-1.06 -0.43 l-2.98 0 l0 3.06 l2.96 0 z M95.24 16.78 q0.52 -0.48 0.52 -1.18 t-0.52 -1.18 t-1.5 -0.48 l-3.08 0 l0 3.32 l3.14 0 q0.92 0 1.44 -0.48 z M109.72 18.9 q-0.38 0.52 -1.31 0.93 t-2.03 0.41 q-1.7 0 -2.95 -0.76 t-1.91 -2.07 t-0.66 -2.91 t0.66 -2.91 t1.91 -2.07 t2.95 -0.76 q1.14 0 2.01 0.39 t1.33 0.99 l0 -1.14 l2.96 0 l0 11 l-2.96 0 l0 -1.1 z M109.02 12.25 q-0.82 -0.87 -2.2 -0.87 q-1.4 0 -2.21 0.87 t-0.81 2.25 q0 1.34 0.83 2.22 t2.19 0.88 q1.4 0 2.21 -0.83 t0.81 -2.27 q0 -1.38 -0.82 -2.25 z M114.98 11.62 l0 -2.58 l10.46 0 l-6 8.36 l5.38 0 l0 2.6 l-10.66 0 l5.98 -8.38 l-5.16 0 z M135.3 18.9 q-0.38 0.52 -1.31 0.93 t-2.03 0.41 q-1.7 0 -2.95 -0.76 t-1.91 -2.07 t-0.66 -2.91 t0.66 -2.91 t1.91 -2.07 t2.95 -0.76 q1.14 0 2.01 0.39 t1.33 0.99 l0 -1.14 l2.96 0 l0 11 l-2.96 0 l0 -1.1 z M134.60000000000002 12.25 q-0.82 -0.87 -2.2 -0.87 q-1.4 0 -2.21 0.87 t-0.81 2.25 q0 1.34 0.83 2.22 t2.19 0.88 q1.4 0 2.21 -0.83 t0.81 -2.27 q0 -1.38 -0.82 -2.25 z M149.56 18.9 q-0.38 0.52 -1.31 0.93 t-2.03 0.41 q-1.7 0 -2.95 -0.76 t-1.91 -2.07 t-0.66 -2.91 t0.66 -2.91 t1.91 -2.07 t2.95 -0.76 q1.14 0 2.01 0.39 t1.33 0.99 l0 -1.14 l2.96 0 l0 11 l-2.96 0 l0 -1.1 z M148.86 12.25 q-0.82 -0.87 -2.2 -0.87 q-1.4 0 -2.21 0.87 t-0.81 2.25 q0 1.34 0.83 2.22 t2.19 0.88 q1.4 0 2.21 -0.83 t0.81 -2.27 q0 -1.38 -0.82 -2.25 z M160.72 11.87 q-0.86 0.21 -1.58 0.99 t-0.72 2.28 l0 4.86 l-2.98 0 l0 -11 l2.98 0 l0 1.46 q0.74 -0.98 1.81 -1.33 t1.95 -0.33 l0 2.92 q-0.6 -0.06 -1.46 0.15 z"></path></g>
			</g>
		</svg>
	